<svg width="800" height="800" viewBox="0 0 800 800" fill="none" xmlns="http://www.w3.org/2000/svg">
<g clip-path="url(#clip0_2_2)">
<path d="M528.357 0H113.757C102.214 0 92.8572 9.35714 92.8572 27.5143V785.714C92.8572 790.643 102.214 800 113.757 800H686.243C697.786 800 707.143 790.643 707.143 785.714V185.4C707.143 175.457 705.814 172.257 703.471 169.9L537.243 3.67143C534.886 1.32857 531.686 0 528.357 0Z" fill="#E9E9E0"/>
<path d="M535.714 2.15714V171.429H704.986L535.714 2.15714Z" fill="#D9D7CA"/>
<path d="M686.243 800H113.757C102.214 800 92.8572 790.643 92.8572 779.1V557.143H707.143V779.1C707.143 790.643 697.786 800 686.243 800Z" fill="#A62736"/>
<path d="M258.105 736.148V759H182.422V736.148H258.105ZM191.992 616.812V759H162.695V616.812H191.992ZM248.242 674.723V696.988H182.422V674.723H248.242ZM258.008 616.812V639.762H182.422V616.812H258.008ZM330.566 708.316H294.336V685.465H330.566C336.165 685.465 340.723 684.553 344.238 682.73C347.754 680.842 350.326 678.238 351.953 674.918C353.581 671.598 354.395 667.854 354.395 663.688C354.395 659.456 353.581 655.517 351.953 651.871C350.326 648.225 347.754 645.296 344.238 643.082C340.723 640.868 336.165 639.762 330.566 639.762H304.492V759H275.195V616.812H330.566C341.699 616.812 351.237 618.831 359.18 622.867C367.188 626.839 373.307 632.34 377.539 639.371C381.771 646.402 383.887 654.443 383.887 663.492C383.887 672.672 381.771 680.615 377.539 687.32C373.307 694.026 367.188 699.202 359.18 702.848C351.237 706.493 341.699 708.316 330.566 708.316ZM482.617 616.812H511.816V710.758C511.816 721.695 509.473 730.908 504.785 738.395C500.163 745.882 493.75 751.513 485.547 755.289C477.409 759.065 468.034 760.953 457.422 760.953C446.81 760.953 437.37 759.065 429.102 755.289C420.898 751.513 414.453 745.882 409.766 738.395C405.143 730.908 402.832 721.695 402.832 710.758V616.812H432.129V710.758C432.129 717.138 433.138 722.346 435.156 726.383C437.174 730.419 440.072 733.382 443.848 735.27C447.689 737.158 452.214 738.102 457.422 738.102C462.76 738.102 467.285 737.158 470.996 735.27C474.772 733.382 477.637 730.419 479.59 726.383C481.608 722.346 482.617 717.138 482.617 710.758V616.812ZM591.602 696.598H555.078L554.883 676.48H585.547C590.951 676.48 595.378 675.797 598.828 674.43C602.279 672.997 604.85 670.947 606.543 668.277C608.301 665.543 609.18 662.223 609.18 658.316C609.18 653.889 608.333 650.309 606.641 647.574C605.013 644.84 602.441 642.854 598.926 641.617C595.475 640.38 591.016 639.762 585.547 639.762H565.234V759H535.938V616.812H585.547C593.815 616.812 601.204 617.594 607.715 619.156C614.29 620.719 619.857 623.095 624.414 626.285C628.971 629.475 632.454 633.512 634.863 638.395C637.272 643.212 638.477 648.941 638.477 655.582C638.477 661.441 637.142 666.845 634.473 671.793C631.868 676.741 627.734 680.777 622.07 683.902C616.471 687.027 609.147 688.753 600.098 689.078L591.602 696.598ZM590.332 759H547.07L558.496 736.148H590.332C595.475 736.148 599.674 735.335 602.93 733.707C606.185 732.014 608.594 729.736 610.156 726.871C611.719 724.007 612.5 720.719 612.5 717.008C612.5 712.841 611.784 709.228 610.352 706.168C608.984 703.108 606.771 700.764 603.711 699.137C600.651 697.444 596.615 696.598 591.602 696.598H563.379L563.574 676.48H598.73L605.469 684.391C614.128 684.26 621.094 685.79 626.367 688.98C631.706 692.105 635.579 696.174 637.988 701.188C640.462 706.201 641.699 711.572 641.699 717.301C641.699 726.415 639.714 734.098 635.742 740.348C631.771 746.533 625.944 751.188 618.262 754.312C610.645 757.438 601.335 759 590.332 759Z" fill="white"/>
</g>
<defs>
<clipPath id="clip0_2_2">
<rect width="800" height="800" fill="white"/>
</clipPath>
</defs>
</svg>
