<svg width="800" height="800" viewBox="0 0 800 800" fill="none" xmlns="http://www.w3.org/2000/svg">
<g clip-path="url(#clip0_2_2)">
<path d="M528.357 0H113.757C102.214 0 92.8572 9.35714 92.8572 27.5143V785.714C92.8572 790.643 102.214 800 113.757 800H686.243C697.786 800 707.143 790.643 707.143 785.714V185.4C707.143 175.457 705.814 172.257 703.471 169.9L537.243 3.67143C534.886 1.32857 531.686 0 528.357 0Z" fill="#E9E9E0"/>
<path d="M535.714 2.15714V171.429H704.986L535.714 2.15714Z" fill="#D9D7CA"/>
<path d="M686.243 800H113.757C102.214 800 92.8572 790.643 92.8572 779.1V557.143H707.143V779.1C707.143 790.643 697.786 800 686.243 800Z" fill="#314854"/>
<path d="M282.27 615.812V758H253.07V615.812H282.27ZM326.02 615.812V638.762H210.004V615.812H326.02ZM366.84 615.812L393.598 665.422L420.355 615.812H453.852L412.543 686.32L454.926 758H421.137L393.598 707.414L366.059 758H332.074L374.555 686.32L333.148 615.812H366.84ZM533.246 615.812V758H504.047V615.812H533.246ZM576.996 615.812V638.762H460.98V615.812H576.996Z" fill="white"/>
</g>
<defs>
<clipPath id="clip0_2_2">
<rect width="800" height="800" fill="white"/>
</clipPath>
</defs>
</svg>
