<svg width="800" height="800" viewBox="0 0 800 800" fill="none" xmlns="http://www.w3.org/2000/svg">
<g clip-path="url(#clip0_2_2)">
<path d="M528.357 0H113.757C102.214 0 92.8572 9.35714 92.8572 27.5143V785.714C92.8572 790.643 102.214 800 113.757 800H686.243C697.786 800 707.143 790.643 707.143 785.714V185.4C707.143 175.457 705.814 172.257 703.471 169.9L537.243 3.67143C534.886 1.32857 531.686 0 528.357 0Z" fill="#E9E9E0"/>
<path d="M535.714 2.15714V171.429H704.986L535.714 2.15714Z" fill="#D9D7CA"/>
<path d="M686.243 800H113.757C102.214 800 92.8572 790.643 92.8572 779.1V557.143H707.143V779.1C707.143 790.643 697.786 800 686.243 800Z" fill="#37359C"/>
<path d="M218.695 615.812H271.723C282.595 615.812 291.938 617.44 299.75 620.695C307.628 623.951 313.682 628.768 317.914 635.148C322.146 641.529 324.262 649.374 324.262 658.684C324.262 666.301 322.96 672.844 320.355 678.312C317.816 683.716 314.203 688.241 309.516 691.887C304.893 695.467 299.457 698.332 293.207 700.48L283.93 705.363H237.836L237.641 682.512H271.918C277.061 682.512 281.326 681.6 284.711 679.777C288.096 677.954 290.635 675.415 292.328 672.16C294.086 668.905 294.965 665.129 294.965 660.832C294.965 656.275 294.118 652.336 292.426 649.016C290.733 645.695 288.161 643.156 284.711 641.398C281.26 639.641 276.931 638.762 271.723 638.762H247.992V758H218.695V615.812ZM298.188 758L265.766 694.621L296.723 694.426L329.535 756.633V758H298.188ZM404.633 640.129L365.961 758H334.809L387.641 615.812H407.465L404.633 640.129ZM436.762 758L397.992 640.129L394.867 615.812H414.887L468.012 758H436.762ZM435.004 705.07V728.02H359.906V705.07H435.004ZM481.195 615.812H534.223C545.095 615.812 554.438 617.44 562.25 620.695C570.128 623.951 576.182 628.768 580.414 635.148C584.646 641.529 586.762 649.374 586.762 658.684C586.762 666.301 585.46 672.844 582.855 678.312C580.316 683.716 576.703 688.241 572.016 691.887C567.393 695.467 561.957 698.332 555.707 700.48L546.43 705.363H500.336L500.141 682.512H534.418C539.561 682.512 543.826 681.6 547.211 679.777C550.596 677.954 553.135 675.415 554.828 672.16C556.586 668.905 557.465 665.129 557.465 660.832C557.465 656.275 556.618 652.336 554.926 649.016C553.233 645.695 550.661 643.156 547.211 641.398C543.76 639.641 539.431 638.762 534.223 638.762H510.492V758H481.195V615.812ZM560.688 758L528.266 694.621L559.223 694.426L592.035 756.633V758H560.688Z" fill="white"/>
</g>
<defs>
<clipPath id="clip0_2_2">
<rect width="800" height="800" fill="white"/>
</clipPath>
</defs>
</svg>
